<mxfile host="app.diagrams.net" modified="2022-02-23T02:31:53.963Z" agent="5.0 (Windows NT 10.0; Win64; x64) AppleWebKit/537.36 (KHTML, like Gecko) Chrome/98.0.4758.102 Safari/537.36" etag="OwkZMFKcMwMJp0oe4w1q" version="16.5.3" type="github">
  <diagram id="PGvmYQ8NYmotNaErMFmg" name="Página-1">
    <mxGraphModel dx="1385" dy="614" grid="1" gridSize="10" guides="1" tooltips="1" connect="1" arrows="1" fold="1" page="1" pageScale="1" pageWidth="827" pageHeight="1169" math="0" shadow="0">
      <root>
        <mxCell id="0" />
        <mxCell id="1" parent="0" />
        <mxCell id="6Dfd_NfQTtge2caoGxpt-2" value="Sector Defensa o Sector Marítimo" style="rounded=0;whiteSpace=wrap;html=1;" vertex="1" parent="1">
          <mxGeometry x="350" y="310" width="120" height="60" as="geometry" />
        </mxCell>
        <mxCell id="6Dfd_NfQTtge2caoGxpt-3" value="Comercio Vía Marítima" style="rounded=1;whiteSpace=wrap;html=1;" vertex="1" parent="1">
          <mxGeometry x="110" y="440" width="120" height="60" as="geometry" />
        </mxCell>
        <mxCell id="6Dfd_NfQTtge2caoGxpt-4" value="" style="shape=mxgraph.signs.transportation.ship_2;html=1;pointerEvents=1;fillColor=#000000;strokeColor=none;verticalLabelPosition=bottom;verticalAlign=top;align=center;" vertex="1" parent="1">
          <mxGeometry x="60" y="510" width="60" height="60" as="geometry" />
        </mxCell>
        <mxCell id="6Dfd_NfQTtge2caoGxpt-10" value="" style="outlineConnect=0;dashed=0;verticalLabelPosition=bottom;verticalAlign=top;align=center;html=1;shape=mxgraph.aws3.ec2_compute_container;fillColor=#F58534;gradientColor=none;" vertex="1" parent="1">
          <mxGeometry x="60" y="610" width="60" height="34.5" as="geometry" />
        </mxCell>
        <mxCell id="6Dfd_NfQTtge2caoGxpt-11" value="" style="shape=mxgraph.pid.vessels.barrel,_drum;html=1;pointerEvents=1;align=center;verticalLabelPosition=bottom;verticalAlign=top;dashed=0;" vertex="1" parent="1">
          <mxGeometry x="70" y="680" width="40" height="50" as="geometry" />
        </mxCell>
        <mxCell id="6Dfd_NfQTtge2caoGxpt-12" value="" style="shape=image;verticalLabelPosition=bottom;labelBackgroundColor=default;verticalAlign=top;aspect=fixed;imageAspect=0;image=https://cdn-icons-png.flaticon.com/512/89/89147.png;" vertex="1" parent="1">
          <mxGeometry x="210" y="520" width="75" height="75" as="geometry" />
        </mxCell>
        <mxCell id="6Dfd_NfQTtge2caoGxpt-13" value="" style="verticalLabelPosition=bottom;sketch=0;html=1;fillColor=#282828;strokeColor=none;verticalAlign=top;pointerEvents=1;align=center;shape=mxgraph.cisco_safe.people_places_things_icons.icon1;" vertex="1" parent="1">
          <mxGeometry x="200" y="690" width="46.5" height="50" as="geometry" />
        </mxCell>
        <mxCell id="6Dfd_NfQTtge2caoGxpt-14" value="" style="sketch=0;outlineConnect=0;fontColor=#232F3E;gradientColor=none;fillColor=#3F8624;strokeColor=none;dashed=0;verticalLabelPosition=bottom;verticalAlign=top;align=center;html=1;fontSize=12;fontStyle=0;aspect=fixed;pointerEvents=1;shape=mxgraph.aws4.elastic_file_system_one_zone;" vertex="1" parent="1">
          <mxGeometry x="210" y="610" width="52" height="52" as="geometry" />
        </mxCell>
      </root>
    </mxGraphModel>
  </diagram>
</mxfile>
